<svg height="467pt" viewBox="-63 0 467 467.66" width="467pt" xmlns="http://www.w3.org/2000/svg"><path d="M280.07 227.79c0-17.88 13.532-32.368 30.22-32.368h.67c16.661 0 30.18 14.43 30.22 32.277.14 58.39.05 64.121-.032 151.332-.046 48.969-37.117 88.63-82.828 88.63h-98.14c-30.032 0-57.72-17.423-72.352-45.52L.328 254.03l9.14-7.582c18.93-17.398 47.403-15.258 63.872 4.79l24.488 29.812.14-205.09c.012-17.871 13.544-32.352 30.223-32.352h.008c16.692 0 30.223 14.5 30.223 32.38v124.12c.398-17.5 13.77-31.53 30.2-31.53h.706c16.692 0 30.223 14.491 30.223 32.37v10.422c0-17.883 13.527-32.371 30.23-32.371h.07c16.688 0 30.22 14.488 30.22 32.371zm0 0" fill="#f7caa5"/><path d="M128.09 0C88.652.043 56.695 32.004 56.648 71.441a8 8 0 0016 0C72.648 40.821 97.473 16 128.09 16s55.441 24.82 55.441 55.441a8 8 0 0016 0C199.484 32.004 167.527.043 128.09 0zm0 0" fill="#fedb41"/></svg>