<svg height="512" viewBox="0 0 58 58" width="512" xmlns="http://www.w3.org/2000/svg"><g fill="none"><path d="M44.22 11H54a2.006 2.006 0 012 2v41H2V13a2.006 2.006 0 012-2h9.79" fill="#3b97d3"/><path d="M51.2 15.02C45.09 15.21 6 17.66 6 49V16a1.003 1.003 0 011-1h44c.067.001.134.008.2.02z" fill="#3f5c6c"/><path d="M52 16v33H6c0-31.34 39.09-33.79 45.2-33.98.17.04.327.118.46.23A.983.983 0 0152 16z" fill="#35495e"/><path d="M58 50v4a3.999 3.999 0 01-4 4H4a3.999 3.999 0 01-4-4v-4a1.003 1.003 0 011-1h56c.552.002.998.448 1 1z" fill="#2980ba"/><path d="M35.764 53H22.236a2 2 0 01-1.789-1.106L19 49h20l-1.447 2.894A2 2 0 0135.763 53z" fill="#3b97d3"/><path d="M0 54h12a1 1 0 000-2H0zm17 0h-1a1 1 0 010-2h1a1 1 0 010 2zm41-2v2H46a1 1 0 010-2zm-16 2h-1a1 1 0 010-2h1a1 1 0 010 2z" fill="#285680"/><path d="M41.823 25.467l.023.015-12.22 18.19a.764.764 0 01-1.253 0l-12.219-18.19.023-.015a15.844 15.844 0 01-3.175-9.777C13.172 6.93 20.358-.064 29.12.002 37.882.068 44.961 7.169 45 15.93a15.842 15.842 0 01-3.177 9.536z" fill="#e64c3c"/><g fill="#f3d55b"><path d="M24 25a1 1 0 01-1-1V10a1 1 0 012 0v14a1 1 0 01-1 1z"/><path d="M27 25h-6a1 1 0 010-2h6a1 1 0 010 2zm0-14h-6a1 1 0 010-2h6a1 1 0 010 2zm4 14a1 1 0 01-1-1V10a1 1 0 012 0v14a1 1 0 01-1 1z"/><path d="M35.5 18H31a1 1 0 01-1-1v-7a1 1 0 011-1h4.5a4.5 4.5 0 110 9zM32 16h3.5a2.5 2.5 0 100-5H32z"/></g></g></svg>